<svg width="1400" height="440" viewBox="0 0 1400 440" xmlns="http://www.w3.org/2000/svg" font-family="Consolas, 'Courier New', monospace">
  <rect width="1400" height="440" fill="#0a0a0a"/>

  <!-- top bar -->
  <rect x="0" y="0" width="1400" height="42" fill="#111318"/>
  <text x="20" y="27" fill="#FFA500" font-size="18" font-weight="bold">TAMANNA // TERMINAL</text>
  <text x="380" y="27" fill="#666666" font-size="16">|</text>
  <text x="400" y="27" fill="#00FF41" font-size="16">&lt; BUILD MODE &gt;</text>
  <text x="580" y="27" fill="#666666" font-size="16">|</text>
  <text x="600" y="27" fill="#00FF41" font-size="16">GITHUB DASHBOARD</text>
  <text x="1240" y="27" fill="#00FF41" font-size="15">STATUS: LIVE</text>
  <circle cx="1225" cy="22" r="5" fill="#00FF41"/>

  <line x1="0" y1="42" x2="1400" y2="42" stroke="#2a2a2a" stroke-width="1"/>

  <!-- left panel: terminal prompt -->
  <rect x="0" y="42" width="340" height="356" fill="#0d0f12"/>
  <text x="20" y="80" fill="#00FF41" font-size="15">$ whoami</text>
  <text x="20" y="108" fill="#4ade80" font-size="14">&gt; builder. learner.</text>
  <text x="20" y="128" fill="#4ade80" font-size="14">&gt; problem solver.</text>
  <text x="20" y="158" fill="#4ade80" font-size="14">&gt; shipping in progress.</text>
  <rect x="20" y="178" width="10" height="16" fill="#00FF41"/>

  <text x="20" y="240" fill="#666666" font-size="12">──────────────────</text>
  <text x="20" y="266" fill="#FFA500" font-size="13" font-weight="bold">FOCUS</text>
  <text x="20" y="290" fill="#c9c9c9" font-size="13">Founder-mode builder</text>
  <text x="20" y="310" fill="#c9c9c9" font-size="13">Learning markets, systems</text>
  <text x="20" y="330" fill="#c9c9c9" font-size="13">&amp; how to ship faster</text>

  <line x1="340" y1="42" x2="340" y2="398" stroke="#2a2a2a" stroke-width="1"/>

  <!-- middle panel: projects -->
  <text x="360" y="72" fill="#FFA500" font-size="14" font-weight="bold">PROJECTS</text>
  <text x="640" y="72" fill="#FFA500" font-size="14" font-weight="bold">STATUS</text>
  <text x="820" y="72" fill="#FFA500" font-size="14" font-weight="bold">NOTES</text>
  <line x1="360" y1="84" x2="1060" y2="84" stroke="#2a2a2a" stroke-width="1"/>

  <!-- row 1 MintyBath -->
  <text x="360" y="112" fill="#e8e8e8" font-size="14" font-weight="bold">MintyBath</text>
  <text x="360" y="130" fill="#888888" font-size="12">Building finance for everyone</text>
  <rect x="640" y="102" width="130" height="18" rx="3" fill="#0d2818" stroke="#00FF41"/>
  <text x="648" y="115" fill="#00FF41" font-size="11">BUILDING</text>
  <rect x="640" y="126" width="130" height="6" fill="#1a1a1a"/>
  <rect x="640" y="126" width="91" height="6" fill="#00FF41"/>
  <text x="820" y="112" fill="#c9c9c9" font-size="12">0 → 1</text>
  <text x="820" y="128" fill="#c9c9c9" font-size="12">Problem worth solving</text>

  <!-- row 2 DTU -->
  <text x="360" y="168" fill="#e8e8e8" font-size="14" font-weight="bold">DTU CS</text>
  <text x="360" y="186" fill="#888888" font-size="12">Incoming</text>
  <rect x="640" y="158" width="130" height="18" rx="3" fill="#2a1f0d" stroke="#FFA500"/>
  <text x="648" y="171" fill="#FFA500" font-size="11">LOADING...</text>
  <rect x="640" y="182" width="130" height="6" fill="#1a1a1a"/>
  <rect x="640" y="182" width="78" height="6" fill="#FFA500"/>
  <text x="820" y="168" fill="#c9c9c9" font-size="12">Fall 2026</text>
  <text x="820" y="184" fill="#c9c9c9" font-size="12">Let's go</text>

  <!-- row 3 Finance -->
  <text x="360" y="224" fill="#e8e8e8" font-size="14" font-weight="bold">Finance</text>
  <text x="360" y="242" fill="#888888" font-size="12">Markets. Systems. Behaviour.</text>
  <rect x="640" y="214" width="130" height="18" rx="3" fill="#0d2818" stroke="#00FF41"/>
  <text x="648" y="227" fill="#00FF41" font-size="11">LEARNING</text>
  <rect x="640" y="238" width="130" height="6" fill="#1a1a1a"/>
  <rect x="640" y="238" width="85" height="6" fill="#00FF41"/>
  <text x="820" y="224" fill="#c9c9c9" font-size="12">Long-term game</text>

  <!-- row 4 Side Projects -->
  <text x="360" y="280" fill="#e8e8e8" font-size="14" font-weight="bold">Side Projects</text>
  <text x="360" y="298" fill="#888888" font-size="12">Always cooking something</text>
  <rect x="640" y="270" width="130" height="18" rx="3" fill="#2a1f0d" stroke="#FFA500"/>
  <text x="648" y="283" fill="#FFA500" font-size="11">EXPERIMENT</text>
  <rect x="640" y="294" width="130" height="6" fill="#1a1a1a"/>
  <rect x="640" y="294" width="52" height="6" fill="#FFA500"/>
  <text x="820" y="280" fill="#c9c9c9" font-size="12">Ideas → Code → Ship</text>

  <!-- row 5 Personal Growth -->
  <text x="360" y="336" fill="#e8e8e8" font-size="14" font-weight="bold">Personal Growth</text>
  <text x="360" y="354" fill="#888888" font-size="12">Mind. Health. Skills.</text>
  <rect x="640" y="326" width="130" height="18" rx="3" fill="#0d2818" stroke="#00FF41"/>
  <text x="648" y="339" fill="#00FF41" font-size="11">ONGOING</text>
  <rect x="640" y="350" width="130" height="6" fill="#1a1a1a"/>
  <rect x="640" y="350" width="104" height="6" fill="#00FF41"/>
  <text x="820" y="336" fill="#c9c9c9" font-size="12">1% better every day</text>

  <line x1="1060" y1="42" x2="1060" y2="398" stroke="#2a2a2a" stroke-width="1"/>

  <!-- right panel: market watch -->
  <text x="1080" y="72" fill="#FFA500" font-size="14" font-weight="bold">MARKET WATCH</text>
  <line x1="1080" y1="84" x2="1380" y2="84" stroke="#2a2a2a" stroke-width="1"/>
  <text x="1080" y="112" fill="#e8e8e8" font-size="13">NIFTY 50</text>
  <text x="1300" y="112" fill="#00FF41" font-size="13" text-anchor="end">+0.62%</text>
  <text x="1080" y="140" fill="#e8e8e8" font-size="13">SENSEX</text>
  <text x="1300" y="140" fill="#00FF41" font-size="13" text-anchor="end">+0.55%</text>
  <text x="1080" y="168" fill="#e8e8e8" font-size="13">USD/INR</text>
  <text x="1300" y="168" fill="#ff5c5c" font-size="13" text-anchor="end">-0.12%</text>
  <text x="1080" y="196" fill="#e8e8e8" font-size="13">GOLD</text>
  <text x="1300" y="196" fill="#00FF41" font-size="13" text-anchor="end">+0.18%</text>
  <text x="1080" y="224" fill="#e8e8e8" font-size="13">BTC/USD</text>
  <text x="1300" y="224" fill="#00FF41" font-size="13" text-anchor="end">+1.35%</text>

  <text x="1080" y="270" fill="#FFA500" font-size="13" font-weight="bold">TODAY</text>
  <text x="1080" y="294" fill="#c9c9c9" font-size="12">→ Ship one thing</text>
  <text x="1080" y="314" fill="#c9c9c9" font-size="12">→ Fix one bug</text>
  <text x="1080" y="334" fill="#c9c9c9" font-size="12">→ Compound</text>

  <!-- bottom ticker -->
  <line x1="0" y1="398" x2="1400" y2="398" stroke="#2a2a2a" stroke-width="1"/>
  <rect x="0" y="398" width="1400" height="42" fill="#111318"/>
  <text x="20" y="424" fill="#FFA500" font-size="12" font-weight="bold">LIVE FEED</text>
  <text x="150" y="424" fill="#e8e8e8" font-size="12">RELIANCE 2,894.35</text>
  <text x="290" y="424" fill="#00FF41" font-size="12">▲ 1.26%</text>
  <text x="380" y="424" fill="#e8e8e8" font-size="12">TCS 4,033.10</text>
  <text x="490" y="424" fill="#ff5c5c" font-size="12">▼ 0.48%</text>
  <text x="580" y="424" fill="#e8e8e8" font-size="12">HDFCBANK 1,678.90</text>
  <text x="740" y="424" fill="#00FF41" font-size="12">▲ 0.75%</text>
  <text x="830" y="424" fill="#e8e8e8" font-size="12">INFY 1,542.25</text>
  <text x="940" y="424" fill="#ff5c5c" font-size="12">▼ 0.22%</text>
  <text x="1030" y="424" fill="#e8e8e8" font-size="12">ITC 449.80</text>
  <text x="1130" y="424" fill="#00FF41" font-size="12">▲ 0.31%</text>
  <text x="1220" y="424" fill="#e8e8e8" font-size="12">SBIN 812.45</text>
  <text x="1320" y="424" fill="#00FF41" font-size="12">▲ 0.66%</text>
</svg>
